<svg width="25" height="25" viewBox="0 0 25 25" fill="none" xmlns="http://www.w3.org/2000/svg">
    <g clip-path="url(#clip0_4_1480)">
    <path d="M12.5 0C5.60747 0 0 5.60747 0 12.5C0 19.3925 5.60747 25 12.5 25C19.3925 25 25 19.3925 25 12.5C25 5.60747 19.3925 0 12.5 0ZM19.9294 7.50201L15.6597 9.96714L13.1138 8.49714V3.56701L15.6203 2.11987C17.2182 2.60156 18.7056 3.46351 19.9294 4.61708V7.50201ZM13.1138 21.4329V16.5027L15.6597 15.0327L19.9294 17.4979V20.3829C18.7055 21.5365 17.2182 22.3982 15.6203 22.8801L13.1138 21.4329ZM23.3382 12.5C23.3382 13.3388 23.2412 14.1754 23.0497 14.9877L20.5429 16.4351L16.2733 13.9699V11.0303L20.5429 8.5652L23.0497 10.0124C23.2412 10.8246 23.3382 11.6612 23.3382 12.5ZM5.07065 17.498L9.34033 15.0329L11.8862 16.5028V21.433L9.37961 22.8801C7.78169 22.3984 6.29442 21.5366 5.07065 20.3829V17.498V17.498ZM11.8862 3.56708V8.49721L9.34033 9.96721L5.07065 7.50208V4.61721C6.29448 3.4637 7.78169 2.60175 9.37961 2.12L11.8862 3.56708ZM8.72682 11.0301V13.9698L4.45708 16.4349L1.95032 14.9877C1.7589 14.1755 1.66188 13.3389 1.66188 12.4999C1.66188 11.6608 1.7589 10.8243 1.95032 10.0121L4.45708 8.56493L8.72682 11.0301Z" fill="white"/>
    </g>
    <defs>
    <clipPath id="clip0_4_1480">
    <rect width="25" height="25" fill="white"/>
    </clipPath>
    </defs>
    </svg>
    