<?xml version="1.0" encoding="utf-8"?>
<!-- Generator: Adobe Illustrator 26.0.3, SVG Export Plug-In . SVG Version: 6.00 Build 0)  -->
<svg version="1.1" id="Capa_1" xmlns="http://www.w3.org/2000/svg" xmlns:xlink="http://www.w3.org/1999/xlink" x="0px" y="0px"
	 viewBox="0 0 385 385" style="enable-background:new 0 0 385 385;" xml:space="preserve">
<style type="text/css">
	.st0{fill:#ECAA19;}
</style>
<g>
	<g>
		<path class="st0" d="M192.5,0C86.4,0,0,86.4,0,192.5S86.4,385,192.5,385S385,298.6,385,192.5S298.6,0,192.5,0z M306.9,115.5
			l-65.8,38L202,130.9V54.9l38.6-22.3c24.6,7.4,47.5,20.7,66.4,38.5V115.5L306.9,115.5z M202,330.1v-75.9l39.2-22.6l65.8,38v44.4
			c-18.8,17.8-41.8,31-66.4,38.5L202,330.1z M359.4,192.5c0,12.9-1.5,25.8-4.4,38.3l-38.6,22.3l-65.8-38v-45.3l65.8-38l38.6,22.3
			C357.9,166.7,359.4,179.6,359.4,192.5z M78.1,269.5l65.8-38l39.2,22.6v75.9l-38.6,22.3c-24.6-7.4-47.5-20.7-66.4-38.5V269.5
			L78.1,269.5z M183,54.9v75.9l-39.2,22.6l-65.8-38V71.1c18.8-17.8,41.8-31,66.4-38.5L183,54.9z M134.4,169.9v45.3l-65.8,38
			L30,230.8c-2.9-12.5-4.4-25.4-4.4-38.3s1.5-25.8,4.4-38.3l38.6-22.3L134.4,169.9z"/>
	</g>
</g>
</svg>
