<svg width="40" height="40" viewBox="0 0 40 40" fill="none" xmlns="http://www.w3.org/2000/svg">
    <path d="M18.2783 4.39474C15.0098 4.39475 11.8752 5.69314 9.56404 8.00429C7.25287 10.3154 5.95446 13.45 5.95444 16.7185C5.95444 19.987 7.25284 23.1216 9.564 25.4328C11.8752 27.7439 15.0098 29.0423 18.2783 29.0423C21.5468 29.0423 24.6814 27.7439 26.9925 25.4328C29.3037 23.1216 30.6021 19.987 30.6021 16.7185C30.6021 13.45 29.3037 10.3154 26.9925 8.00429C24.6814 5.69314 21.5467 4.39475 18.2783 4.39474ZM18.2783 6.53683C19.6436 6.53683 20.9955 6.80018 22.2569 7.31185C23.5183 7.82353 24.6644 8.5735 25.6299 9.51896C26.5953 10.4644 27.3611 11.5868 27.8836 12.8221C28.4061 14.0574 28.675 15.3814 28.675 16.7185C28.675 18.0556 28.4061 19.3795 27.8836 20.6148C27.3611 21.8501 26.5953 22.9726 25.6299 23.918C24.6644 24.8635 23.5183 25.6134 22.2569 26.1251C20.9955 26.6368 19.6436 26.9001 18.2783 26.9001C15.5209 26.9001 12.8765 25.8274 10.9268 23.918C8.97702 22.0086 7.88167 19.4188 7.88167 16.7185C7.88167 14.0182 8.97702 11.4284 10.9268 9.51899C12.8765 7.60956 15.5209 6.53685 18.2783 6.53683Z" fill="white"/>
    <path d="M32.9753 32.1342L27.4088 25.6811C26.4493 24.5687 25.2783 24.1817 24.7934 24.8167C24.3086 25.4517 24.6933 26.8683 25.6529 27.9806L31.2193 34.4338C32.1788 35.5462 33.3498 35.9332 33.8347 35.2981C34.3196 34.6631 33.9348 33.2466 32.9753 32.1342Z" fill="white"/>
    </svg>
    