<svg height="376.386326" viewBox="0 0 60 84.999998" width="265.684466" xmlns="http://www.w3.org/2000/svg"><g fill-rule="evenodd"><path d="m59.905.050002h-59.81v64.201c0 5.0147 3.0484 8.9623 9.1452 11.874 2.0274.97535 4.7252 1.9814 8.109 3.0027l7.5448 2.3016 1.0667.4879c.79235.3657 1.3565.67045 1.6768.9144.77722.54855 1.5393 1.2497 2.2863 2.1186.71628-.74682 1.2957-1.2957 1.7222-1.6464.83862-.68587 1.9053-1.2804 3.2312-1.7833.9451-.3657 3.4449-1.1582 7.4989-2.3928 3.4902-1.0673 6.2343-2.0576 8.2005-2.9723 6.2181-2.8808 9.3279-6.8439 9.3279-11.904z" fill="#7b003a"/><path d="m27.82 80.316c.701.47248 1.4021 1.0671 2.1186 1.8137.65562-.64005 1.1887-1.1127 1.5847-1.4171.74682-.57925 1.738-1.0977 3.0032-1.5395.86842-.32018 3.201-1.0059 6.9655-2.073 3.2468-.92982 5.7917-1.7833 7.6367-2.5756 5.7765-2.4843 8.6573-5.9292 8.6573-10.304l-.000113-62.006h-55.572v62.006c0 4.3442 2.8353 7.7585 8.4899 10.273 1.8902.83817 4.4049 1.707 7.5446 2.6063l7.0115 1.9968z" fill="#a3c5e9"/><path d="m13.892 23.274-2.073-.30475-.94495-1.9053-.91485 1.9055-2.088.30475 1.5088 1.4938-.3657 2.1186c.62492-.33515 1.25-.67045 1.8596-1.0059l1.8746 1.0059-.3657-2.1186z" fill="#fff"/><path d="m24.154 27.05c-.41841.41811-.397 1.0612-.84611 1.3132-.32467.18225-.69501.1243-.8524-.04343-.22523-.24065-.30325-.61729-.0085-.94779.34998-.39281 1.0844-.33216 1.707-.32197m-3.1426 6.0963c-.01288.51306.06215.90886.31269 1.2163-.3648.28992-.29217.74772-.1234 1.1554.18315.44282.80927 1.1444 1.5831 1.4692.13178-.22867-.23392-.83922-.10243-1.2588.47322.363.92234.64784 1.2296.61953-.20801-.42036-.23002-.70265-.1532-.81466.83099-.69112 1.8171-1.5651 2.4058-1.758.47682-.15634.9761.17551 1.0574.77588.09285.68662-.17252 1.2645-.62582 1.7479-.80418.85854-1.8844 1.2717-2.718 2.1961-1.3295 1.4742-1.6073 3.1034-3.2199 3.188.89104-.59977 1.3978-1.1134 1.9074-2.0867-3.1817.4849-5.1152-1.2304-7.0721-2.2331-.85749-.43953-1.715-.53163-2.2012-.6366-.77662-.80253-1.1735-1.4612-1.3563-2.5385-.20711-1.2209.10228-2.3038-1.017-2.4359-.64185-.88789-1.4583-1.4895-2.6566-.70399.6411.11112 1.1068.26297 1.4231 1.2109-.092548.13882-.30774.34728-.31344.59063-.40479.02291-.53103.05721-.79714.31224-1.0648-.43039-2.0675-.25278-2.5762.80298.74068-.19782 1.3132-.17371 1.8222.32497.054959.34144.090601.59108.28438.83952-.44013.26851-.70864.80373-.72571 1.1597-.85974.20456-1.3794.74158-1.4255 1.5582.61504-.43024 1.2516-.48296 1.5663-.39835.20052.20516.37918.60471.7916.71987.46708.13044 1.3717-.06454 1.8942.0891.20471.36136.28049.5499.26192.77977-.07263.90272-1.5411.30834-1.4071 1.6588-.50961.14616-.81856-.0322-1.2639-.35162.29951 1.3366 1.0806 1.9458 2.1195 1.3166.8813.19213 1.4264-.72047 2.2203-1.1555.7645-.41871 1.8791.11935 2.5099.56592.96771.68498 1.9955 1.5515 2.5282 3.6164.34563-.35596.57985-.87711.63765-1.3864l2.5103 2.3246-5.4129 4.1973c-.36944.28633-.78591.549-1.1747.39475-.3326-.13193-.52234-.49928-.81272-.77348-.42425-.40104-.99497-.6673-1.6055-.3329-.96756-.03265-1.8653.19603-2.048 1.6486.32002-.28858.61429-.54496 1.215-.3645.0027.36465.09524.68288.32976.95453-.30086.18525-.49763.47472-.5207.65982-.89298.05152-1.5441.55738-1.6314 1.6142.50647-.50752.92922-.73095 1.5275-.4861.17686 1.0842.67524 1.2191 1.2494 1.1455-.16203.46304-.19723.7925.01109 1.1801-.31164.69186.0268 1.5839.47487 1.8811-.05795-.42845.01168-.93806.25488-1.1633.50916.12564.88714-.07802 1.3963-.74188.1213.55843.51246.86753 1.0044.82245.06634.5818.33021 1.0504.67449 1.3536-.09839-.47427-.15395-1.001-.06709-1.4752.92279-.72885.73634-1.523.88924-2.4295.17012-1.009.67854-1.458 1.4917-1.9919 1.5787-1.0363 3.4412-1.8225 6.3858-2.0693.91994 1.1104 1.8357 2.3125 2.9988 3.3358-1.7795 1.4351-2.9855.83278-4.4284 1.0019-.65008.07592-1.51.37993-1.9754.86139-.41003.4241-.61938.96397-1.0758 1.1931-.35477.17821-.82964.22718-1.381-.22912-.02696 1.2982.49823 1.7282 1.8242 1.653-.46828.55379-.96022.76375-1.9672.3946.4268 1.033 1.1239 1.4138 2.2059 1.2994.25593 1.7701 2.525 2.7517 2.121 4.1491-.54705 1.8921-4.731 2.4112-6.2506 1.4321-1.0683-.68857-1.5458-1.8372-2.8013-1.4586-.69201-.62957-1.9703-.83578-2.4973.67449.912-.50946 1.3282-.23137 1.1314.3678-1.6388.02171-2.2566.83593-2.0284 1.947.31778-.58254.65503-.71762 1.0704-.6375-.13732.31508-.22628.72736-.20816 1.3538-.80957.4894-.84072 1.3875-.47337 2.1395.2131-.61324.31913-1.1738.8205-1.2022.29981.40583.71642.69516 1.2495.86768-.18704.96142-.14077 1.8352.13882 2.5632.1848-.64394.36929-1.0544.61234-1.3482.84402.58509 1.7366.59677 2.6089.36151 1.7818-.48056 2.8762-1.8697 4.2598-1.8905.76914-.01168 1.1202.59258.60396 1.2987 1.1038-.06724 1.6984-.32602 2.2346-.63541.83623-.48266 1.3637-1.0889 2.1744-1.2828 1.3479-.32227 3.248 1.2221 4.151-.50212-1.0615.17896-1.6719-.30176-1.8578-.80388 1.3375.23272 2.2063.19318 2.9242-.92443-1.9519.32841-2.8203-1.3737-2.9403-2.3082-.11261-.87786.17057-2.5219 1.9947-3.0757.58764-1.2202.89778-1.8595 1.5356-2.8673l.2119-.98224c.12909.4557.22748.89074.08491 1.3848-.20831.72226-.71193 1.5091-1.017 2.3369-.25099.68108-.32661 1.4294-.28978 1.995.04642.71028.29157 1.3605.74083 1.8954.74907.89134 1.8427 1.6121 1.0758 3.3967.8214-.08117 1.2928-.47367 2.1144-1.4105.62462.47652 1.0839 1.1184.8527 1.9841 1.0376-.31868 1.6924-1.132 2.059-2.3161 1.4865.04298 2.3189.33874 2.4629.91051.24006.95289-2.138 4.488-5.1261 4.6085-.47457-.12744-.84941-.62178-1.2199-.79774-.335-.15904-.79594-.12504-1.1943.43968-.93566-.25383-2.0367-.01123-2.3251 1.0344-.55544.24709-1.0493 1.071-.96861 1.7969.19902-.17267.83698-.59887 1.0797-.63211.06724.21654.44178.44417.65562.50632-1.2644 1.1083-1.3041 2.0172-1.1932 2.45.53387-.86363 1.1594-1.0245 1.4634-1.0013.2146.53986.64125.76435 1.2656.83443l.02965 1.5005 1.0686-1.1829c1.3075.6399 2.683.23751 3.654-.49134 1.7914-1.3443 2.5389-3.9728 3.8689-3.7997.27839.03639.53612.31374.40299.71328.32931.07967.6429-.05197.8807-.33545.52324-.62343.84821-1.8652 1.8248-3.3265.62388-.93387 2.1226-1.9456 2.5508-2.8715-.69681.4593-1.5106.31448-1.6229-.0912 1.226-.64125 2.3303-1.3902 2.7881-3.1514-.6712.31029-1.284.54256-1.955.46394.56068-1.1879.75102-2.4145.21789-3.2116-1.7067 2.5012-3.7489 2.0847-4.5748 1.5037-.64364-.45271-1.257-1.1348-1.3069-2.7272-.01303-.41707.08821-1.0808.26746-1.7021.1791-.62133.37828-1.1124.38547-1.6799 2.5231 1.4531 4.5022 1.8912 5.9261 1.8283 2.6667-.11801 4.395-2.234 4.3012-4.9398-.04583-1.3243-.60591-2.6044-1.5959-3.868-1.1199-1.4294-2.7046-2.8095-3.7521-4.2394-.54855-.74907-.9159-1.5917-1.0697-2.3582-.24754-1.2338-.0614-2.6535 1.2527-3.8454 1.4126.81691 2.7429 1.1449 4.0083 1.0489 1.2958-.09839 2.3236-.87247 3.3217-1.694.45001-.37049.92204-.75791 1.8782-.65158-.31493-.3663-.89254-.76165-1.7619-.71942 2.0416-2.4766 2.8627-5.5719 1.7327-7.7356-.18495 1.2463-.60037 1.5479-.9749 1.805-.49733.34144-.89688.40464-1.6172.78321.37154-.72571.3344-1.2627.09285-2.0907-.88235 2.2827-2.0274 1.7357-3.6392 3.4057.18959-.76375.21355-1.3815-.07338-2.0867-.09959.69516-.51096 1.2245-.91889 1.5255-1.4576 1.0751-3.2796 1.3268-2.9257 4.7999-1.8682 1.4824-2.5491 3.2395-2.4169 4.9937.10962 1.4549.69711 2.7881 1.641 4.0405 1.0052 1.3331 2.3953 2.5749 3.3814 3.7743 1.0797 1.3133 2.0952 3.6218.91709 5.2698-.76794 1.0742-2.9797 1.6945-7.6438-1.2305-.2432-2.497-2.1577-5.0654-2.5636-7.3505-.1523-.85794-.07607-1.5977.07982-2.3773.13762-.68782.35028-1.4068.33874-2.2653.79894.66536 1.7147.82514 2.3967.56652-.54286-.20741-1.0023-.8801-.99032-1.7291.01902-1.3243.77228-2.6694.05571-4.1639.60066.43069 1.2596.68632 2.0061.35836-1.6769-1.1119-.14481-2.5446-.94675-4.3859.58973.29067 1.4418.28977 2.0605-.0614-1.9878-.45301-.97086-3.0063-2.6673-4.6554.73305.0313 1.3348-.31688 1.6885-.86917-1.7851.29606-2.6965-2.1169-4.2141-3.4117-1.4255-1.2163-3.179-1.654-5.2276-1.2659-.02591-.30086.46319-.74757 1.0595-1.0484-1.8632-.7943-3.7811-.20142-5.4111 1.2606.07158-.62582-.03205-1.2515-.4858-1.8483-.23047 1.3062-2.2224 2.1147-2.9207 3.1811-.31733.4846-.50632 1.0168-.4882 1.6233-1.7756 1.2585-2.2677 1.1751-2.789 2.6963-.88879.74054-1.9675 1.5103-2.6229 2.2508.02082.22733.11441.49883.16443.75566l.51815-.51006c-.1839.47757-.1541.94465.06709 1.3264.42201.7287 1.2657 1.1215 1.7533 1.4333-.3016-.91275-.2152-1.1548.13852-1.3857.77573-.50647 2.5806-.32976 2.7405-.08162.21714.3368-.05421 1.9112-1.0382 2.3254-.70909.29846-1.1819.08042-1.6949-.46034" fill="#ffe500"/><path d="m50.363 4.9121c-2.0423 0-3.7738.56338-5.198 1.687-.33006.26581-.62807.56966-.89014.90826-.2751.34189-.51785.72167-.72496 1.1426-.20067.42096-.35926.87666-.47577 1.3704-.12295.4906-.1845 1.0287-.1845 1.6141 0 1.1648.23302 2.1491.6992 2.9593.43369.81032.99676 1.4812 1.6861 2.013 1.4275.9779 3.1137 1.4591 5.0588 1.4463.73799-.01273 1.4339-.10124 2.0813-.26911.64394-.14871 1.22-.29112 1.7348-.43354.30101-.50632.53732-1.5034.70564-2.9877-.0584-.11067-.17162-.18674-.33021-.22149-.16503-.01273-.29127.01902-.37543.0918-.23961.68677-.65712 1.3324-1.2494 1.9401-.30086.28798-.66341.52534-1.0842.70265-.43054.20576-.93222.307-1.5083.307-1.1715 0-2.1879-.50003-3.0521-1.5034-.8867-.98748-1.3463-2.4275-1.3691-4.3138.02276-1.8989.48565-3.3105 1.3885-4.2379.87726-.89568 1.858-1.3451 2.9421-1.3451 1.8448.012579 3.0231.91784 3.5376 2.7188.09704.072631.22987.097939.3949.072631.15844-.025309.26207-.094945.31074-.21205-.158-1.3681-.229-2.3523-.219-2.96-.289-.0348-.764-.1266-1.434-.2691-.661-.136-1.476-.2088-2.444-.2215m-14.738 1.9496c-.01303-.37349.01767-.60336.10123-.68992.0599-.062148.23496-.091799.52219-.091799h1.6728c.48311 0 .87307.046125 1.1654.14871.3016.10618.51815.2721.66895.47487.17207.23077.36226.72466.55169 1.4874.12055.07293.26312.087006.43084.07293.13313-.011086.22838-.047622.28393-.14886-.0328-1.4685-.04583-2.456-.04583-2.9624-.37858.038037-1.2338.057056-2.5654.057056h-4.2021c-.4569 0-.91395-.01273-1.3741-.01902-.45046-.00614-.88774-.012729-1.3087-.038037-.10138.050616-.15035.152-.15035.307 0 .16787.03594.28813.11426.36091l.37858.056907c.43414.034743.70504.17401.8193.41467.09794.24365.14691.79445.14691 1.6521v7.0673c0 .83233-.04897 1.3706-.14691 1.6142-.11426.22792-.38517.36705-.8193.41452l-.62987.09494c-.07503.06649-.11426.17416-.11426.32287 0 .15514.03924.27225.11426.34488 1.1423-.03789 2.141-.05691 2.993-.05691.88115 0 1.8963.01902 3.0517.05691.07503-.07263.11426-.18974.11426-.34488 0-.14871-.03924-.25638-.11426-.32287l-.69845-.09494c-.403-.048-.664-.187-.788-.418-.128-.241-.186-.779-.173-1.612v-2.5605c0-.26581.0322-.43429.10123-.50317.04822-.04807.19258-.07278.43084-.07278h1.6401c.48625 0 .82949.0581 1.015.19303.18015.13088.28648.43054.37528.87352l.0915.4557c.08476.07293.20861.09809.37214.09195.16278-.0063.27734-.03804.3362-.11082-.03609-.59512-.05241-1.2533-.05241-1.975 0-.73754.01632-1.4147.05241-2.0319-.05885-.098239-.17312-.14871-.3362-.14871-.16323 0-.28738.044177-.37214.12969l-.0915.4557c-.08865.44297-.19828.73544-.37528.87052-.18839.14331-.52878.19603-1.015.19603h-1.6401c-.23826 0-.38187-.02845-.43084-.12025-.06844-.0632-.10123-.2152-.10123-.4557zm-8.48 2.8959c.64948-1.5224 1.1751-2.589 1.5765-3.1934.20247-.37364.55154-.59497 1.0445-.6679l.49269-.094944c.07518-.072781.11426-.18674.11426-.34189-.02606-.155-.07832-.25638-.15335-.30685-.54181.037887-1.1293.056907-1.7592.056907-.6986 0-1.4752-.019019-2.3336-.056907-.11756.050467-.17641.14541-.17641.28798-.0099.155.01962.2754.09464.36076l.55499.12969c.22838.038187.37199.085509.43399.13927.04897.050767.07503.11396.07503.18674 0 .098239-.062.32931-.18599.68692-.36884 1.0507-.86828 2.3767-1.4981 3.9719l-.70489 1.7819c-.24155.60126-.44073 1.0697-.60066 1.4116-.13044-.30385-.32961-.7913-.59392-1.4685l-1.667-4.2759c-.229-.5824-.412-1.0571-.555-1.421-.134-.3704-.203-.5952-.203-.6679-.013-.1678.144-.288.474-.364l.57131-.11082c.062-.098089.09464-.21834.09464-.36076 0-.12355-.03939-.22164-.11097-.28798-1.0935.037887-2.0432.056907-2.8528.056907-.87127 0-1.7297-.019019-2.5752-.056907-.07503.050467-.12714.13912-.15979.26896-.02621.13613.0031.26267.08805.37978l.52549.12969c.42096.063346.71807.19633.89104.39895.16638.19303.41766.75012.75716 1.671l3.0746 7.7321c.29052.78486.55484 1.5065.79639 2.1617.11097.10438.28079.15829.50916.15829.29052 0 .51246-.05391.66596-.15829.37858-.99377 1.0182-2.6111 1.9191-4.8519zm-17.024 2.6934c-.22837.01258-.37528-.02845-.43728-.12025-.078472-.06319-.065294-.2152.039086-.45585l.47008-1.4209c.30355-.92743.56143-1.6269.78007-2.0985.17956.459.40793 1.1236.68542 1.9971l.4897 1.5414c.10752.24051.12714.39236.05855.4557-.06529.06649-.20891.10123-.43728.10123zm1.7494 1.0001c.32646 0 .5517.01273.67569.03804.13059.04747.20561.152.23182.30385l.50916 1.6332c.24155.71208.36226 1.1425.36226 1.2912 0 .05391-.02621.11396-.07518.17416-.062.0632-.20561.11396-.43399.14871l-.61369.09494c-.08476.0918-.1207.20576-.11097.34189 0 .14242.05227.25323.1502.32586.81916-.03789 1.6743-.05691 2.5653-.05691 1.0119 0 1.9844.01902 2.9181.05691.08805-.07263.13373-.19618.13373-.36076-.01303-.14871-.05211-.25324-.11426-.307l-.72466-.11082c-.32631-.0632-.56457-.22149-.71133-.47472-.09464-.14242-.17641-.31328-.25144-.50946-.08491-.19318-.18929-.4274-.30685-.70579l-2.574-7.4532c-.444-1.2692-.731-2.1331-.862-2.5984-.058-.2469-.205-.3703-.434-.3703-.023.0253-.182.1836-.473.4715-.313.2912-.705.516-1.175.6678.013.478-.235 1.2819-.7408 2.4118l-1.7038 4.6268c-.4831 1.317-.8748 2.333-1.1783 3.042-.1533.354-.3231.595-.5091.725-.1893.123-.4081.196-.6464.221l-.51231.05706c-.062148.0918-.088055.20576-.075176.34189 0 .14242.045674.25323.13388.32586.77019-.02531 1.423-.04418 1.9517-.05691.80942.01273 1.5504.0316 2.2227.05691.088206-.0632.13059-.17716.13059-.34488 0-.14886-.029351-.25638-.0912-.32287l-.57461-.09494c-.26761-.06005-.44073-.11711-.52878-.16458-.10438-.03804-.15649-.0918-.15649-.15829-.013179-.11067.032496-.33859.13703-.67719l.70489-2.2092c.04897-.18045.11756-.29442.20561-.34189.058704-.02531.19917-.03804.41452-.03804z" fill="#7b003a"/></g></svg>