<?xml version="1.0" encoding="UTF-8"?>
<svg xmlns="http://www.w3.org/2000/svg" xmlns:xlink="http://www.w3.org/1999/xlink" width="422.4pt" height="510.2pt" viewBox="0 0 422.4 510.2" version="1.1">
<defs>
<clipPath id="clip1">
  <path d="M 6 0 L 416 0 L 416 510.199219 L 6 510.199219 Z M 6 0 "/>
</clipPath>
</defs>
<g id="surface1">
<path style=" stroke:none;fill-rule:evenodd;fill:rgb(100%,100%,100%);fill-opacity:1;" d="M 242.375 420.058594 C 232.429688 427.585938 222.03125 434.382813 211.246094 440.328125 C 200.464844 434.382813 190.0625 427.585938 180.121094 420.058594 L 180.121094 200.328125 L 242.375 200.328125 Z M 206.441406 219.664063 C 208.199219 221.671875 210.421875 222.648438 213.25 222.386719 C 214.914063 218.007813 216.355469 212.796875 220.058594 209.960938 C 223.59375 207.246094 228.210938 206.257813 232.460938 207.597656 C 235.042969 208.414063 237.050781 213.316406 234.449219 216.671875 C 230.320313 221.984375 224.824219 225.03125 218.058594 225.242188 C 215.394531 234.824219 213.238281 241.753906 209.125 247.003906 C 215.59375 250.078125 218.972656 250.835938 222.925781 250.816406 C 226.632813 250.804688 231.625 248.503906 236.707031 244.289063 C 232.996094 254.339844 225.8125 257.453125 219.039063 256.4375 C 214.753906 255.796875 211.34375 253.222656 206.8125 250.589844 C 204.183594 253.628906 199.386719 257.039063 194.878906 257.46875 C 192.09375 257.730469 187.582031 255.523438 187.433594 252.730469 C 187.253906 249.382813 189.78125 247.039063 192.839844 245.660156 C 196.035156 244.222656 200.691406 243.976563 204.195313 245.132813 C 207.085938 239.585938 209.867188 233.1875 212.085938 224.945313 C 209.199219 224.421875 207.21875 223.636719 206.441406 219.664063 Z M 207.40625 422.785156 C 212.152344 422.785156 217.535156 418.863281 221.46875 412.207031 C 221.796875 411.644531 221.761719 410.492188 221.148438 410.289063 C 220.367188 410.027344 219.433594 410.714844 218.914063 411.351563 C 215.4375 415.636719 211.976563 418.453125 209.035156 418.453125 C 202.125 418.453125 200.128906 408.699219 203.816406 397.050781 C 207.5 385.40625 216.269531 375.40625 224.9375 375.78125 C 228.417969 375.933594 229.035156 378.566406 228.839844 382.089844 C 228.808594 382.632813 228.457031 383.6875 229.003906 383.722656 C 229.695313 383.769531 230.277344 382.878906 230.421875 382.195313 C 231.570313 376.816406 229.992188 373.703125 223.601563 373.464844 C 212.175781 373.027344 200.039063 384.589844 195.179688 398.050781 C 190.324219 411.515625 198.292969 422.785156 207.40625 422.785156 Z M 219.136719 331.492188 C 218.414063 336.277344 217.726563 341.46875 216.714844 346.484375 C 218.164063 346.632813 219.550781 346.761719 220.824219 346.785156 C 224.410156 346.847656 225.496094 345.15625 226.324219 341.722656 C 227.304688 345.523438 226.730469 349.972656 222.25 350.492188 C 220.507813 350.695313 218.246094 350.597656 215.824219 350.464844 C 214.851563 354.398438 213.605469 358.121094 211.902344 361.320313 C 210.34375 364.253906 208.402344 366.742188 205.9375 368.558594 C 197.167969 375.007813 190.570313 370.339844 191.222656 363.300781 C 192.035156 366.960938 194.238281 369.527344 197.277344 369.128906 C 201.445313 368.578125 205.164063 362.84375 206.085938 359.503906 L 208.648438 350.210938 C 207.34375 350.226563 206.097656 350.3125 204.972656 350.507813 C 201.914063 351.03125 199.726563 352.34375 199.589844 355.296875 C 197.757813 352.605469 200.402344 348.089844 203.15625 347.003906 C 205.21875 346.191406 207.5 345.945313 209.816406 345.964844 L 213.878906 331.214844 C 211.570313 331.046875 209.304688 330.839844 207.152344 330.65625 C 205.773438 330.539063 202.230469 331.003906 201.925781 333.296875 C 201.625 335.589844 204.074219 337.351563 207.058594 337.605469 C 202.941406 338.070313 196.933594 338.136719 196.9375 332.441406 C 196.941406 328.46875 202.621094 326.6875 205.925781 326.28125 C 214.003906 325.28125 222.195313 327.671875 230.296875 326.863281 C 232.984375 326.59375 235.558594 325.277344 237.421875 323.007813 C 236.542969 328.503906 234.628906 329.609375 231.320313 330.445313 C 227.546875 331.398438 223.351563 331.605469 219.136719 331.492188 Z M 208.878906 267.476563 C 205.050781 266.503906 198.703125 269.394531 196.917969 274.171875 C 199.644531 271.085938 203.554688 268.714844 206.53125 269.949219 C 208.625 270.820313 207.554688 274.828125 206.703125 276.328125 L 192.644531 300.992188 C 190.601563 304.574219 190.53125 309.480469 193.136719 311.996094 C 196.484375 315.234375 204.289063 313.644531 207.273438 311.765625 C 210.257813 309.886719 212.363281 306.820313 214.101563 303.699219 C 213.546875 305.925781 213.210938 307.992188 213.839844 309.996094 C 214.746094 312.882813 218.398438 315.039063 221.375 314.839844 C 228.054688 314.386719 230.960938 308.976563 226.617188 302.878906 C 227.628906 306.296875 225.488281 309.640625 223.042969 309.980469 C 220.398438 310.347656 215.984375 307.136719 217.976563 302.910156 L 234.128906 268.621094 L 228.632813 268.621094 L 212.824219 302.183594 C 210.75 306.589844 205.65625 310.253906 200.789063 310.007813 C 196.433594 309.785156 197.136719 302.746094 198.589844 300.199219 L 211.597656 277.378906 C 214.308594 272.628906 212.597656 268.425781 208.878906 267.476563 Z M 229.398438 210.964844 C 231.90625 212.617188 230.683594 216.085938 227.96875 218.566406 C 225.25 221.054688 221.039063 222.558594 218.777344 222.71875 C 219.101563 221.226563 219.984375 217.636719 221.226563 215.289063 C 223.289063 211.378906 226.339844 208.9375 229.398438 210.964844 Z M 201.878906 247.796875 C 199.800781 251.386719 197.546875 252.753906 195.484375 253.109375 C 193.476563 253.460938 190.269531 252.710938 190.410156 250.128906 C 190.503906 248.445313 192.363281 246.6875 196.691406 246.515625 C 199.007813 246.425781 200.789063 247.367188 201.878906 247.796875 Z M 208.1875 129.3125 L 203.675781 135.566406 L 197.378906 133.496094 C 195.796875 131.015625 194.808594 128.128906 194.613281 125.03125 L 198.5 119.640625 L 205.824219 122.046875 Z M 219.199219 107.164063 C 222.019531 108.289063 224.488281 110.109375 226.402344 112.410156 L 226.421875 119.035156 L 219.082031 121.394531 L 212.902344 116.90625 L 212.875 109.195313 Z M 230.507813 125.03125 C 230.308594 128.128906 229.320313 131.015625 227.742188 133.496094 L 221.445313 135.5625 L 216.933594 129.3125 L 219.292969 122.046875 L 226.621094 119.640625 Z M 217.007813 141.300781 C 215.585938 141.664063 214.09375 141.859375 212.558594 141.859375 C 211.027344 141.859375 209.535156 141.664063 208.113281 141.300781 L 204.1875 135.9375 L 208.742188 129.714844 L 216.378906 129.714844 L 220.933594 135.9375 Z M 198.71875 112.414063 C 200.628906 110.109375 203.097656 108.289063 205.917969 107.164063 L 212.242188 109.195313 L 212.214844 116.90625 L 206.035156 121.394531 L 198.695313 119.035156 Z M 178.804688 96.085938 C 180.792969 93.074219 183.382813 90.328125 186.527344 88.046875 C 189.671875 85.761719 193.082031 84.144531 196.558594 83.183594 C 194.171875 86.101563 192.601563 89.71875 189.421875 92.03125 C 186.238281 94.339844 182.316406 94.714844 178.804688 96.085938 Z M 212.558594 104.796875 C 223.066406 104.796875 231.636719 113.367188 231.636719 123.878906 C 231.636719 134.378906 223.066406 142.949219 212.558594 142.949219 C 202.054688 142.949219 193.484375 134.378906 193.484375 123.878906 C 193.484375 113.367188 202.054688 104.796875 212.558594 104.796875 Z M 175.699219 147.390625 C 173.449219 144.566406 171.640625 141.257813 170.4375 137.5625 C 169.238281 133.867188 168.757813 130.121094 168.914063 126.515625 C 170.953125 129.6875 173.90625 132.300781 175.121094 136.039063 C 176.335938 139.78125 175.480469 143.628906 175.699219 147.390625 Z M 223.535156 166.199219 C 220.152344 167.464844 216.445313 168.164063 212.558594 168.164063 C 208.671875 168.164063 204.964844 167.464844 201.585938 166.199219 C 205.234375 165.242188 208.625 163.238281 212.558594 163.238281 C 216.492188 163.238281 219.886719 165.242188 223.535156 166.199219 Z M 256.203125 126.515625 C 256.363281 130.121094 255.882813 133.863281 254.679688 137.558594 C 253.480469 141.257813 251.667969 144.566406 249.421875 147.390625 C 249.636719 143.628906 248.78125 139.777344 249.996094 136.039063 C 251.210938 132.296875 254.167969 129.6875 256.203125 126.515625 Z M 254.101563 106.757813 C 253.902344 98.3125 249.507813 89.648438 241.597656 83.902344 C 233.691406 78.15625 224.09375 76.65625 216.003906 79.074219 C 215.386719 75.046875 214.179688 71.449219 212.5625 68.613281 C 210.941406 71.449219 209.734375 75.046875 209.117188 79.074219 C 201.027344 76.65625 191.429688 78.160156 183.519531 83.90625 C 175.609375 89.648438 171.214844 98.3125 171.015625 106.753906 C 166.992188 106.09375 163.199219 106.132813 160 106.796875 C 162.199219 109.214844 165.246094 111.472656 168.890625 113.304688 C 164.085938 120.253906 162.550781 129.84375 165.570313 139.144531 C 168.59375 148.441406 175.472656 155.296875 183.441406 158.09375 C 181.570313 161.714844 180.433594 165.339844 180.074219 168.585938 C 183.054688 167.238281 186.144531 165.039063 189.011719 162.140625 C 194.136719 168.855469 202.785156 173.28125 212.558594 173.28125 C 222.335938 173.28125 230.984375 168.855469 236.105469 162.144531 C 238.972656 165.046875 242.0625 167.242188 245.042969 168.589844 C 244.683594 165.339844 243.546875 161.71875 241.675781 158.09375 C 249.644531 155.296875 256.527344 148.441406 259.546875 139.140625 C 262.570313 129.84375 261.03125 120.253906 256.230469 113.304688 C 259.875 111.472656 262.921875 109.214844 265.117188 106.800781 C 261.917969 106.136719 258.125 106.09375 254.101563 106.757813 Z M 228.03125 144.1875 C 230.183594 145.863281 231.707031 148.410156 233.398438 150.519531 C 234.183594 151.496094 235.089844 152.054688 236.113281 152.976563 C 238.5625 153.929688 242.75 149.746094 243.371094 147.972656 C 244.890625 143.644531 243.050781 138.816406 244.53125 134.261719 C 246.011719 129.710938 250.335938 126.882813 251.652344 122.488281 C 252.191406 120.691406 251.265625 114.855469 248.726563 114.179688 C 247.355469 114.324219 246.292969 114.238281 245.082031 114.570313 C 242.472656 115.28125 239.746094 116.445313 237.019531 116.535156 C 237.175781 117.890625 236.359375 119.222656 235.015625 119.65625 C 233.484375 120.15625 231.824219 119.308594 231.324219 117.777344 C 230.828125 116.246094 231.671875 114.589844 233.207031 114.089844 C 234.550781 113.652344 235.992188 114.253906 236.660156 115.4375 C 238.917969 113.90625 241.8125 113.246094 244.339844 112.289063 C 245.511719 111.84375 246.320313 111.15625 247.515625 110.464844 C 249.179688 108.433594 246.496094 103.15625 245 102.015625 C 241.351563 99.234375 236.191406 99.492188 232.316406 96.679688 C 228.445313 93.863281 227.09375 88.878906 223.320313 86.265625 C 221.777344 85.199219 215.941406 84.277344 214.515625 86.480469 C 214.230469 87.835938 213.820313 88.816406 213.757813 90.070313 C 213.628906 92.769531 213.894531 95.726563 213.140625 98.34375 C 214.476563 98.617188 215.488281 99.800781 215.488281 101.214844 C 215.488281 102.824219 214.171875 104.140625 212.558594 104.140625 C 210.949219 104.140625 209.632813 102.824219 209.632813 101.214844 C 209.632813 99.800781 210.644531 98.617188 211.980469 98.34375 C 211.226563 95.726563 211.492188 92.769531 211.363281 90.066406 C 211.300781 88.820313 210.894531 87.839844 210.609375 86.488281 C 209.191406 84.277344 203.339844 85.199219 201.796875 86.265625 C 198.023438 88.878906 196.675781 93.863281 192.800781 96.679688 C 188.925781 99.492188 183.765625 99.234375 180.117188 102.015625 C 178.625 103.15625 175.945313 108.421875 177.597656 110.464844 C 178.796875 111.148438 179.605469 111.84375 180.777344 112.289063 C 183.308594 113.246094 186.199219 113.90625 188.457031 115.433594 C 189.128906 114.246094 190.570313 113.652344 191.914063 114.089844 C 193.445313 114.589844 194.289063 116.246094 193.792969 117.777344 C 193.296875 119.308594 191.636719 120.152344 190.101563 119.65625 C 188.757813 119.21875 187.945313 117.890625 188.101563 116.535156 C 185.375 116.445313 182.648438 115.277344 180.039063 114.566406 C 178.832031 114.238281 177.769531 114.320313 176.398438 114.179688 C 173.859375 114.84375 172.925781 120.691406 173.464844 122.488281 C 174.78125 126.882813 179.109375 129.710938 180.589844 134.261719 C 182.070313 138.816406 180.226563 143.644531 181.746094 147.972656 C 182.367188 149.746094 186.550781 153.921875 189 152.980469 C 190.023438 152.054688 190.933594 151.496094 191.71875 150.519531 C 193.414063 148.410156 194.933594 145.863281 197.085938 144.1875 C 196.164063 143.183594 196.039063 141.628906 196.871094 140.488281 C 197.816406 139.183594 199.65625 138.890625 200.960938 139.839844 C 202.265625 140.785156 202.554688 142.628906 201.609375 143.929688 C 200.777344 145.070313 199.261719 145.433594 198.019531 144.867188 C 197.09375 147.433594 195.140625 149.671875 193.65625 151.929688 C 192.972656 152.976563 192.722656 154.011719 192.164063 155.269531 C 192.011719 157.890625 197.285156 160.585938 199.160156 160.628906 C 203.746094 160.734375 207.769531 157.492188 212.558594 157.492188 C 217.347656 157.492188 221.371094 160.734375 225.957031 160.628906 C 227.835938 160.585938 233.097656 157.898438 232.957031 155.277344 C 232.394531 154.015625 232.148438 152.976563 231.460938 151.929688 C 229.976563 149.671875 228.027344 147.433594 227.097656 144.867188 C 225.855469 145.433594 224.339844 145.070313 223.511719 143.929688 C 222.5625 142.628906 222.855469 140.785156 224.15625 139.839844 C 225.460938 138.890625 227.300781 139.183594 228.246094 140.488281 C 229.078125 141.628906 228.953125 143.183594 228.03125 144.1875 Z M 237.960938 155.035156 C 239.753906 157.511719 241.554688 161.449219 241.902344 164.265625 C 239.332031 163.0625 236.144531 160.132813 234.347656 157.671875 C 232.675781 160.488281 228.472656 162.679688 225.957031 162.738281 C 221.226563 162.847656 217.328125 159.605469 212.558594 159.605469 C 207.792969 159.605469 203.894531 162.847656 199.160156 162.738281 C 196.644531 162.679688 192.441406 160.488281 190.773438 157.664063 C 188.972656 160.132813 185.785156 163.0625 183.214844 164.265625 C 183.5625 161.449219 185.363281 157.511719 187.15625 155.039063 C 183.953125 154.320313 180.570313 151.003906 179.738281 148.628906 C 178.171875 144.160156 180.054688 139.449219 178.578125 134.921875 C 177.105469 130.382813 172.816406 127.679688 171.457031 123.144531 C 170.734375 120.734375 171.523438 116.058594 173.691406 113.59375 C 170.789063 112.648438 167.015625 110.519531 165.078125 108.445313 C 167.863281 107.90625 172.164063 108.402344 175.070313 109.34375 C 174.765625 106.078125 176.875 101.835938 178.875 100.308594 C 182.640625 97.4375 187.699219 97.773438 191.558594 94.96875 C 195.414063 92.171875 196.660156 87.253906 200.554688 84.558594 C 202.625 83.128906 207.3125 82.429688 210.324219 83.734375 C 210.328125 80.679688 211.1875 76.433594 212.558594 73.949219 C 213.933594 76.433594 214.789063 80.675781 214.796875 83.730469 C 217.804688 82.429688 222.496094 83.128906 224.5625 84.558594 C 228.457031 87.253906 229.703125 92.171875 233.558594 94.96875 C 237.417969 97.773438 242.476563 97.4375 246.242188 100.308594 C 248.242188 101.835938 250.355469 106.078125 250.046875 109.34375 C 252.953125 108.40625 257.253906 107.910156 260.042969 108.449219 C 258.105469 110.523438 254.332031 112.648438 251.429688 113.597656 C 253.597656 116.058594 254.382813 120.730469 253.664063 123.140625 C 252.304688 127.675781 248.011719 130.378906 246.539063 134.914063 C 245.066406 139.449219 246.949219 144.160156 245.382813 148.628906 C 244.550781 151.003906 241.164063 154.320313 237.960938 155.035156 Z M 212.558594 99.847656 C 213.3125 99.847656 213.925781 100.464844 213.925781 101.214844 C 213.925781 101.96875 213.3125 102.585938 212.558594 102.585938 C 211.808594 102.585938 211.191406 101.96875 211.191406 101.214844 C 211.191406 100.464844 211.808594 99.847656 212.558594 99.847656 Z M 235.410156 116.449219 C 235.644531 117.171875 235.25 117.941406 234.535156 118.171875 C 233.816406 118.40625 233.042969 118.011719 232.8125 117.296875 C 232.578125 116.585938 232.972656 115.804688 233.6875 115.574219 C 234.402344 115.339844 235.179688 115.734375 235.410156 116.449219 Z M 189.707031 116.449219 C 189.941406 115.734375 190.714844 115.339844 191.429688 115.570313 C 192.144531 115.804688 192.542969 116.578125 192.308594 117.296875 C 192.074219 118.007813 191.300781 118.40625 190.585938 118.171875 C 189.871094 117.9375 189.476563 117.164063 189.707031 116.449219 Z M 198.4375 143.3125 C 197.828125 142.871094 197.691406 142.011719 198.132813 141.402344 C 198.574219 140.796875 199.433594 140.660156 200.042969 141.101563 C 200.652344 141.546875 200.789063 142.402344 200.34375 143.011719 C 199.902344 143.617188 199.046875 143.753906 198.4375 143.3125 Z M 226.683594 143.3125 C 226.074219 143.753906 225.214844 143.621094 224.773438 143.011719 C 224.332031 142.402344 224.464844 141.546875 225.074219 141.101563 C 225.683594 140.660156 226.542969 140.796875 226.984375 141.40625 C 227.425781 142.011719 227.289063 142.871094 226.683594 143.3125 Z M 228.558594 83.183594 C 232.035156 84.144531 235.449219 85.757813 238.589844 88.046875 C 241.734375 90.328125 244.324219 93.074219 246.316406 96.085938 C 242.804688 94.714844 238.878906 94.339844 235.695313 92.027344 C 232.515625 89.714844 230.945313 86.097656 228.558594 83.183594 Z M 228.558594 83.183594 "/>
<path style=" stroke:none;fill-rule:evenodd;fill:rgb(100%,92.576599%,0%);fill-opacity:1;" d="M 211.246094 495.242188 C 110.78125 435.695313 22.257813 332.03125 22.257813 161.921875 C 22.257813 136.089844 24.480469 110.894531 28.667969 86.628906 C 71.667969 42.902344 137.570313 14.835938 211.246094 14.835938 C 284.921875 14.835938 350.824219 42.902344 393.824219 86.628906 C 398.011719 110.894531 400.234375 136.089844 400.234375 161.921875 C 400.234375 332.03125 311.710938 435.695313 211.246094 495.242188 Z M 227.097656 119.152344 L 227.082031 113.285156 C 229.257813 116.257813 230.546875 119.921875 230.546875 123.878906 C 230.546875 123.890625 230.546875 123.910156 230.546875 123.925781 Z M 212.558594 105.886719 C 214.515625 105.886719 216.398438 106.203125 218.164063 106.785156 L 212.5625 108.589844 L 206.960938 106.785156 C 208.722656 106.203125 210.605469 105.886719 212.558594 105.886719 Z M 227.117188 134.414063 C 224.898438 137.472656 221.738281 139.804688 218.074219 140.992188 L 221.542969 136.242188 Z M 207.042969 140.992188 C 203.378906 139.804688 200.222656 137.46875 198.003906 134.414063 L 203.574219 136.242188 Z M 194.574219 123.921875 C 194.574219 123.90625 194.574219 123.890625 194.574219 123.878906 C 194.574219 119.921875 195.863281 116.261719 198.039063 113.285156 L 198.019531 119.148438 Z M 212.558594 117.265625 L 215.703125 119.546875 L 218.84375 121.835938 L 216.445313 129.222656 L 208.675781 129.222656 L 207.476563 125.527344 L 206.273438 121.835938 L 209.417969 119.546875 Z M 242.375 420.058594 C 232.429688 427.585938 222.03125 434.382813 211.246094 440.328125 C 200.464844 434.382813 190.0625 427.585938 180.121094 420.058594 L 180.121094 200.328125 L 242.375 200.328125 Z M 65.628906 179.519531 L 356.863281 179.519531 C 357.164063 165.53125 357.339844 152.425781 356.121094 140.289063 C 354.207031 121.289063 348.785156 114.085938 339.976563 107.339844 C 304.859375 80.460938 260.261719 64.996094 211.246094 64.996094 C 162.230469 64.996094 117.632813 80.460938 82.515625 107.339844 C 73.707031 114.085938 68.289063 121.289063 66.375 140.289063 C 65.152344 152.425781 65.328125 165.53125 65.628906 179.519531 Z M 355.929688 219.914063 L 338.515625 200.328125 L 356.492188 200.328125 C 356.476563 201.886719 356.472656 203.453125 356.472656 205.03125 C 356.472656 209.972656 356.289063 214.933594 355.929688 219.914063 Z M 161.550781 404.6875 C 156.03125 399.710938 150.691406 394.503906 145.546875 389.09375 L 161.550781 371.097656 Z M 130.703125 372.28125 C 124.773438 365.046875 119.179688 357.53125 113.949219 349.796875 L 161.550781 296.261719 L 161.550781 337.589844 Z M 101.675781 330.089844 C 96.773438 321.503906 92.3125 312.703125 88.335938 303.769531 L 161.550781 221.425781 L 161.550781 262.753906 Z M 79.203125 280.53125 C 75.628906 270.074219 72.738281 259.503906 70.582031 248.90625 L 113.769531 200.328125 L 150.515625 200.328125 Z M 66.5625 219.914063 C 66.203125 214.933594 66.019531 209.972656 66.019531 205.03125 C 66.019531 203.453125 66.015625 201.886719 66 200.328125 L 83.976563 200.328125 Z M 343.289063 280.53125 L 271.976563 200.328125 L 308.722656 200.328125 L 351.910156 248.90625 C 349.753906 259.503906 346.859375 270.074219 343.289063 280.53125 Z M 320.8125 330.089844 L 260.941406 262.753906 L 260.941406 221.425781 L 334.15625 303.769531 C 330.179688 312.703125 325.71875 321.503906 320.8125 330.089844 Z M 291.789063 372.28125 L 260.941406 337.589844 L 260.941406 296.261719 L 308.542969 349.796875 C 303.308594 357.53125 297.71875 365.046875 291.789063 372.28125 Z M 260.941406 404.6875 L 260.941406 371.097656 L 276.945313 389.09375 C 271.796875 394.503906 266.460938 399.710938 260.941406 404.6875 Z M 260.941406 404.6875 "/>
<g clip-path="url(#clip1)" clip-rule="nonzero">
<path style=" stroke:none;fill-rule:evenodd;fill:rgb(0%,34.104919%,57.226563%);fill-opacity:1;" d="M 211.246094 510.15625 C 126.890625 464.15625 51.671875 383.023438 24.035156 285.613281 C 4.507813 216.773438 0.0585938 144.628906 17.332031 76.171875 C 63 29.730469 132.996094 -0.078125 211.246094 -0.078125 C 289.492188 -0.078125 359.488281 29.730469 405.15625 76.171875 C 422.433594 144.628906 417.984375 216.773438 398.457031 285.613281 C 370.820313 383.023438 295.601563 464.15625 211.246094 510.15625 Z M 206.441406 219.664063 C 208.199219 221.671875 210.421875 222.648438 213.25 222.386719 C 214.914063 218.007813 216.355469 212.796875 220.058594 209.960938 C 223.59375 207.246094 228.210938 206.257813 232.460938 207.597656 C 235.042969 208.414063 237.050781 213.316406 234.449219 216.671875 C 230.320313 221.984375 224.824219 225.03125 218.058594 225.242188 C 215.394531 234.824219 213.238281 241.753906 209.125 247.003906 C 215.59375 250.078125 218.972656 250.835938 222.925781 250.816406 C 226.632813 250.804688 231.625 248.503906 236.707031 244.289063 C 232.996094 254.339844 225.8125 257.453125 219.039063 256.4375 C 214.753906 255.796875 211.34375 253.222656 206.8125 250.589844 C 204.183594 253.628906 199.386719 257.039063 194.878906 257.46875 C 192.09375 257.730469 187.582031 255.523438 187.433594 252.730469 C 187.253906 249.382813 189.78125 247.039063 192.839844 245.660156 C 196.035156 244.222656 200.691406 243.976563 204.195313 245.132813 C 207.085938 239.585938 209.867188 233.1875 212.085938 224.945313 C 209.199219 224.421875 207.21875 223.636719 206.441406 219.664063 Z M 207.40625 422.785156 C 212.152344 422.785156 217.535156 418.863281 221.46875 412.207031 C 221.796875 411.644531 221.761719 410.492188 221.148438 410.289063 C 220.367188 410.027344 219.433594 410.714844 218.914063 411.351563 C 215.4375 415.636719 211.976563 418.453125 209.035156 418.453125 C 202.125 418.453125 200.128906 408.699219 203.816406 397.050781 C 207.5 385.40625 216.269531 375.40625 224.9375 375.78125 C 228.417969 375.933594 229.035156 378.566406 228.839844 382.089844 C 228.808594 382.632813 228.457031 383.6875 229.003906 383.722656 C 229.695313 383.769531 230.277344 382.878906 230.421875 382.195313 C 231.570313 376.816406 229.992188 373.703125 223.601563 373.464844 C 212.175781 373.027344 200.039063 384.589844 195.179688 398.050781 C 190.324219 411.515625 198.292969 422.785156 207.40625 422.785156 Z M 219.136719 331.492188 C 218.414063 336.277344 217.726563 341.46875 216.714844 346.484375 C 218.164063 346.632813 219.550781 346.761719 220.824219 346.785156 C 224.410156 346.847656 225.496094 345.15625 226.324219 341.722656 C 227.304688 345.523438 226.730469 349.972656 222.25 350.492188 C 220.507813 350.695313 218.246094 350.597656 215.824219 350.464844 C 214.851563 354.398438 213.605469 358.121094 211.902344 361.320313 C 210.34375 364.253906 208.402344 366.742188 205.9375 368.558594 C 197.167969 375.007813 190.570313 370.339844 191.222656 363.300781 C 192.035156 366.960938 194.238281 369.527344 197.277344 369.128906 C 201.445313 368.578125 205.164063 362.84375 206.085938 359.503906 L 208.648438 350.210938 C 207.34375 350.226563 206.097656 350.3125 204.972656 350.507813 C 201.914063 351.03125 199.726563 352.34375 199.589844 355.296875 C 197.757813 352.605469 200.402344 348.089844 203.15625 347.003906 C 205.21875 346.191406 207.5 345.945313 209.816406 345.964844 L 213.878906 331.214844 C 211.570313 331.046875 209.304688 330.839844 207.152344 330.65625 C 205.773438 330.539063 202.230469 331.003906 201.925781 333.296875 C 201.625 335.589844 204.074219 337.351563 207.058594 337.605469 C 202.941406 338.070313 196.933594 338.136719 196.9375 332.441406 C 196.941406 328.46875 202.621094 326.6875 205.925781 326.28125 C 214.003906 325.28125 222.195313 327.671875 230.296875 326.863281 C 232.984375 326.59375 235.558594 325.277344 237.421875 323.007813 C 236.542969 328.503906 234.628906 329.609375 231.320313 330.445313 C 227.546875 331.398438 223.351563 331.605469 219.136719 331.492188 Z M 208.878906 267.476563 C 205.050781 266.503906 198.703125 269.394531 196.917969 274.171875 C 199.644531 271.085938 203.554688 268.714844 206.53125 269.949219 C 208.625 270.820313 207.554688 274.828125 206.703125 276.328125 L 192.644531 300.992188 C 190.601563 304.574219 190.53125 309.480469 193.136719 311.996094 C 196.484375 315.234375 204.289063 313.644531 207.273438 311.765625 C 210.257813 309.886719 212.363281 306.820313 214.101563 303.699219 C 213.546875 305.925781 213.210938 307.992188 213.839844 309.996094 C 214.746094 312.882813 218.398438 315.039063 221.375 314.839844 C 228.054688 314.386719 230.960938 308.976563 226.617188 302.878906 C 227.628906 306.296875 225.488281 309.640625 223.042969 309.980469 C 220.398438 310.347656 215.984375 307.136719 217.976563 302.910156 L 234.128906 268.621094 L 228.632813 268.621094 L 212.824219 302.183594 C 210.75 306.589844 205.65625 310.253906 200.789063 310.007813 C 196.433594 309.785156 197.136719 302.746094 198.589844 300.199219 L 211.597656 277.378906 C 214.308594 272.628906 212.597656 268.425781 208.878906 267.476563 Z M 229.398438 210.964844 C 231.90625 212.617188 230.683594 216.085938 227.96875 218.566406 C 225.25 221.054688 221.039063 222.558594 218.777344 222.71875 C 219.101563 221.226563 219.984375 217.636719 221.226563 215.289063 C 223.289063 211.378906 226.339844 208.9375 229.398438 210.964844 Z M 201.878906 247.796875 C 199.800781 251.386719 197.546875 252.753906 195.484375 253.109375 C 193.476563 253.460938 190.269531 252.710938 190.410156 250.128906 C 190.503906 248.445313 192.363281 246.6875 196.691406 246.515625 C 199.007813 246.425781 200.789063 247.367188 201.878906 247.796875 Z M 227.097656 119.152344 L 227.082031 113.285156 C 229.257813 116.257813 230.546875 119.921875 230.546875 123.878906 C 230.546875 123.890625 230.546875 123.910156 230.546875 123.925781 Z M 212.558594 105.886719 C 214.515625 105.886719 216.398438 106.203125 218.164063 106.785156 L 212.5625 108.589844 L 206.960938 106.785156 C 208.722656 106.203125 210.605469 105.886719 212.558594 105.886719 Z M 227.117188 134.414063 C 224.898438 137.472656 221.738281 139.804688 218.074219 140.992188 L 221.542969 136.242188 Z M 207.042969 140.992188 C 203.378906 139.804688 200.222656 137.46875 198.003906 134.414063 L 203.574219 136.242188 Z M 194.574219 123.921875 C 194.574219 123.90625 194.574219 123.890625 194.574219 123.878906 C 194.574219 119.921875 195.863281 116.261719 198.039063 113.285156 L 198.019531 119.148438 Z M 212.558594 117.265625 L 215.703125 119.546875 L 218.84375 121.835938 L 216.445313 129.222656 L 208.675781 129.222656 L 207.476563 125.527344 L 206.273438 121.835938 L 209.417969 119.546875 Z M 208.1875 129.3125 L 203.675781 135.566406 L 197.378906 133.496094 C 195.796875 131.015625 194.808594 128.128906 194.613281 125.03125 L 198.5 119.640625 L 205.824219 122.046875 Z M 219.199219 107.164063 C 222.019531 108.289063 224.488281 110.109375 226.402344 112.410156 L 226.421875 119.035156 L 219.082031 121.394531 L 212.902344 116.90625 L 212.875 109.195313 Z M 230.507813 125.03125 C 230.308594 128.128906 229.320313 131.015625 227.742188 133.496094 L 221.445313 135.5625 L 216.933594 129.3125 L 219.292969 122.046875 L 226.621094 119.640625 Z M 217.007813 141.300781 C 215.585938 141.664063 214.09375 141.859375 212.558594 141.859375 C 211.027344 141.859375 209.535156 141.664063 208.113281 141.300781 L 204.1875 135.9375 L 208.742188 129.714844 L 216.378906 129.714844 L 220.933594 135.9375 Z M 198.71875 112.414063 C 200.628906 110.109375 203.097656 108.289063 205.917969 107.164063 L 212.242188 109.195313 L 212.214844 116.90625 L 206.035156 121.394531 L 198.695313 119.035156 Z M 178.804688 96.085938 C 180.792969 93.074219 183.382813 90.328125 186.527344 88.046875 C 189.671875 85.761719 193.082031 84.144531 196.558594 83.183594 C 194.171875 86.101563 192.601563 89.71875 189.421875 92.03125 C 186.238281 94.339844 182.316406 94.714844 178.804688 96.085938 Z M 212.558594 104.796875 C 223.066406 104.796875 231.636719 113.367188 231.636719 123.878906 C 231.636719 134.378906 223.066406 142.949219 212.558594 142.949219 C 202.054688 142.949219 193.484375 134.378906 193.484375 123.878906 C 193.484375 113.367188 202.054688 104.796875 212.558594 104.796875 Z M 175.699219 147.390625 C 173.449219 144.566406 171.640625 141.257813 170.4375 137.5625 C 169.238281 133.867188 168.757813 130.121094 168.914063 126.515625 C 170.953125 129.6875 173.90625 132.300781 175.121094 136.039063 C 176.335938 139.78125 175.480469 143.628906 175.699219 147.390625 Z M 223.535156 166.199219 C 220.152344 167.464844 216.445313 168.164063 212.558594 168.164063 C 208.671875 168.164063 204.964844 167.464844 201.585938 166.199219 C 205.234375 165.242188 208.625 163.238281 212.558594 163.238281 C 216.492188 163.238281 219.886719 165.242188 223.535156 166.199219 Z M 256.203125 126.515625 C 256.363281 130.121094 255.882813 133.863281 254.679688 137.558594 C 253.480469 141.257813 251.667969 144.566406 249.421875 147.390625 C 249.636719 143.628906 248.78125 139.777344 249.996094 136.039063 C 251.210938 132.296875 254.167969 129.6875 256.203125 126.515625 Z M 254.101563 106.757813 C 253.902344 98.3125 249.507813 89.648438 241.597656 83.902344 C 233.691406 78.15625 224.09375 76.65625 216.003906 79.074219 C 215.386719 75.046875 214.179688 71.449219 212.5625 68.613281 C 210.941406 71.449219 209.734375 75.046875 209.117188 79.074219 C 201.027344 76.65625 191.429688 78.160156 183.519531 83.90625 C 175.609375 89.648438 171.214844 98.3125 171.015625 106.753906 C 166.992188 106.09375 163.199219 106.132813 160 106.796875 C 162.199219 109.214844 165.246094 111.472656 168.890625 113.304688 C 164.085938 120.253906 162.550781 129.84375 165.570313 139.144531 C 168.59375 148.441406 175.472656 155.296875 183.441406 158.09375 C 181.570313 161.714844 180.433594 165.339844 180.074219 168.585938 C 183.054688 167.238281 186.144531 165.039063 189.011719 162.140625 C 194.136719 168.855469 202.785156 173.28125 212.558594 173.28125 C 222.335938 173.28125 230.984375 168.855469 236.105469 162.144531 C 238.972656 165.046875 242.0625 167.242188 245.042969 168.589844 C 244.683594 165.339844 243.546875 161.71875 241.675781 158.09375 C 249.644531 155.296875 256.527344 148.441406 259.546875 139.140625 C 262.570313 129.84375 261.03125 120.253906 256.230469 113.304688 C 259.875 111.472656 262.921875 109.214844 265.117188 106.800781 C 261.917969 106.136719 258.125 106.09375 254.101563 106.757813 Z M 228.03125 144.1875 C 230.183594 145.863281 231.707031 148.410156 233.398438 150.519531 C 234.183594 151.496094 235.089844 152.054688 236.113281 152.976563 C 238.5625 153.929688 242.75 149.746094 243.371094 147.972656 C 244.890625 143.644531 243.050781 138.816406 244.53125 134.261719 C 246.011719 129.710938 250.335938 126.882813 251.652344 122.488281 C 252.191406 120.691406 251.265625 114.855469 248.726563 114.179688 C 247.355469 114.324219 246.292969 114.238281 245.082031 114.570313 C 242.472656 115.28125 239.746094 116.445313 237.019531 116.535156 C 237.175781 117.890625 236.359375 119.222656 235.015625 119.65625 C 233.484375 120.15625 231.824219 119.308594 231.324219 117.777344 C 230.828125 116.246094 231.671875 114.589844 233.207031 114.089844 C 234.550781 113.652344 235.992188 114.253906 236.660156 115.4375 C 238.917969 113.90625 241.8125 113.246094 244.339844 112.289063 C 245.511719 111.84375 246.320313 111.15625 247.515625 110.464844 C 249.179688 108.433594 246.496094 103.15625 245 102.015625 C 241.351563 99.234375 236.191406 99.492188 232.316406 96.679688 C 228.445313 93.863281 227.09375 88.878906 223.320313 86.265625 C 221.777344 85.199219 215.941406 84.277344 214.515625 86.480469 C 214.230469 87.835938 213.820313 88.816406 213.757813 90.070313 C 213.628906 92.769531 213.894531 95.726563 213.140625 98.34375 C 214.476563 98.617188 215.488281 99.800781 215.488281 101.214844 C 215.488281 102.824219 214.171875 104.140625 212.558594 104.140625 C 210.949219 104.140625 209.632813 102.824219 209.632813 101.214844 C 209.632813 99.800781 210.644531 98.617188 211.980469 98.34375 C 211.226563 95.726563 211.492188 92.769531 211.363281 90.066406 C 211.300781 88.820313 210.894531 87.839844 210.609375 86.488281 C 209.191406 84.277344 203.339844 85.199219 201.796875 86.265625 C 198.023438 88.878906 196.675781 93.863281 192.800781 96.679688 C 188.925781 99.492188 183.765625 99.234375 180.117188 102.015625 C 178.625 103.15625 175.945313 108.421875 177.597656 110.464844 C 178.796875 111.148438 179.605469 111.84375 180.777344 112.289063 C 183.308594 113.246094 186.199219 113.90625 188.457031 115.433594 C 189.128906 114.246094 190.570313 113.652344 191.914063 114.089844 C 193.445313 114.589844 194.289063 116.246094 193.792969 117.777344 C 193.296875 119.308594 191.636719 120.152344 190.101563 119.65625 C 188.757813 119.21875 187.945313 117.890625 188.101563 116.535156 C 185.375 116.445313 182.648438 115.277344 180.039063 114.566406 C 178.832031 114.238281 177.769531 114.320313 176.398438 114.179688 C 173.859375 114.84375 172.925781 120.691406 173.464844 122.488281 C 174.78125 126.882813 179.109375 129.710938 180.589844 134.261719 C 182.070313 138.816406 180.226563 143.644531 181.746094 147.972656 C 182.367188 149.746094 186.550781 153.921875 189 152.980469 C 190.023438 152.054688 190.933594 151.496094 191.71875 150.519531 C 193.414063 148.410156 194.933594 145.863281 197.085938 144.1875 C 196.164063 143.183594 196.039063 141.628906 196.871094 140.488281 C 197.816406 139.183594 199.65625 138.890625 200.960938 139.839844 C 202.265625 140.785156 202.554688 142.628906 201.609375 143.929688 C 200.777344 145.070313 199.261719 145.433594 198.019531 144.867188 C 197.09375 147.433594 195.140625 149.671875 193.65625 151.929688 C 192.972656 152.976563 192.722656 154.011719 192.164063 155.269531 C 192.011719 157.890625 197.285156 160.585938 199.160156 160.628906 C 203.746094 160.734375 207.769531 157.492188 212.558594 157.492188 C 217.347656 157.492188 221.371094 160.734375 225.957031 160.628906 C 227.835938 160.585938 233.097656 157.898438 232.957031 155.277344 C 232.394531 154.015625 232.148438 152.976563 231.460938 151.929688 C 229.976563 149.671875 228.027344 147.433594 227.097656 144.867188 C 225.855469 145.433594 224.339844 145.070313 223.511719 143.929688 C 222.5625 142.628906 222.855469 140.785156 224.15625 139.839844 C 225.460938 138.890625 227.300781 139.183594 228.246094 140.488281 C 229.078125 141.628906 228.953125 143.183594 228.03125 144.1875 Z M 237.960938 155.035156 C 239.753906 157.511719 241.554688 161.449219 241.902344 164.265625 C 239.332031 163.0625 236.144531 160.132813 234.347656 157.671875 C 232.675781 160.488281 228.472656 162.679688 225.957031 162.738281 C 221.226563 162.847656 217.328125 159.605469 212.558594 159.605469 C 207.792969 159.605469 203.894531 162.847656 199.160156 162.738281 C 196.644531 162.679688 192.441406 160.488281 190.773438 157.664063 C 188.972656 160.132813 185.785156 163.0625 183.214844 164.265625 C 183.5625 161.449219 185.363281 157.511719 187.15625 155.039063 C 183.953125 154.320313 180.570313 151.003906 179.738281 148.628906 C 178.171875 144.160156 180.054688 139.449219 178.578125 134.921875 C 177.105469 130.382813 172.816406 127.679688 171.457031 123.144531 C 170.734375 120.734375 171.523438 116.058594 173.691406 113.59375 C 170.789063 112.648438 167.015625 110.519531 165.078125 108.445313 C 167.863281 107.90625 172.164063 108.402344 175.070313 109.34375 C 174.765625 106.078125 176.875 101.835938 178.875 100.308594 C 182.640625 97.4375 187.699219 97.773438 191.558594 94.96875 C 195.414063 92.171875 196.660156 87.253906 200.554688 84.558594 C 202.625 83.128906 207.3125 82.429688 210.324219 83.734375 C 210.328125 80.679688 211.1875 76.433594 212.558594 73.949219 C 213.933594 76.433594 214.789063 80.675781 214.796875 83.730469 C 217.804688 82.429688 222.496094 83.128906 224.5625 84.558594 C 228.457031 87.253906 229.703125 92.171875 233.558594 94.96875 C 237.417969 97.773438 242.476563 97.4375 246.242188 100.308594 C 248.242188 101.835938 250.355469 106.078125 250.046875 109.34375 C 252.953125 108.40625 257.253906 107.910156 260.042969 108.449219 C 258.105469 110.523438 254.332031 112.648438 251.429688 113.597656 C 253.597656 116.058594 254.382813 120.730469 253.664063 123.140625 C 252.304688 127.675781 248.011719 130.378906 246.539063 134.914063 C 245.066406 139.449219 246.949219 144.160156 245.382813 148.628906 C 244.550781 151.003906 241.164063 154.320313 237.960938 155.035156 Z M 212.558594 99.847656 C 213.3125 99.847656 213.925781 100.464844 213.925781 101.214844 C 213.925781 101.96875 213.3125 102.585938 212.558594 102.585938 C 211.808594 102.585938 211.191406 101.96875 211.191406 101.214844 C 211.191406 100.464844 211.808594 99.847656 212.558594 99.847656 Z M 235.410156 116.449219 C 235.644531 117.171875 235.25 117.941406 234.535156 118.171875 C 233.816406 118.40625 233.042969 118.011719 232.8125 117.296875 C 232.578125 116.585938 232.972656 115.804688 233.6875 115.574219 C 234.402344 115.339844 235.179688 115.734375 235.410156 116.449219 Z M 189.707031 116.449219 C 189.941406 115.734375 190.714844 115.339844 191.429688 115.570313 C 192.144531 115.804688 192.542969 116.578125 192.308594 117.296875 C 192.074219 118.007813 191.300781 118.40625 190.585938 118.171875 C 189.871094 117.9375 189.476563 117.164063 189.707031 116.449219 Z M 198.4375 143.3125 C 197.828125 142.871094 197.691406 142.011719 198.132813 141.402344 C 198.574219 140.796875 199.433594 140.660156 200.042969 141.101563 C 200.652344 141.546875 200.789063 142.402344 200.34375 143.011719 C 199.902344 143.617188 199.046875 143.753906 198.4375 143.3125 Z M 226.683594 143.3125 C 226.074219 143.753906 225.214844 143.621094 224.773438 143.011719 C 224.332031 142.402344 224.464844 141.546875 225.074219 141.101563 C 225.683594 140.660156 226.542969 140.796875 226.984375 141.40625 C 227.425781 142.011719 227.289063 142.871094 226.683594 143.3125 Z M 228.558594 83.183594 C 232.035156 84.144531 235.449219 85.757813 238.589844 88.046875 C 241.734375 90.328125 244.324219 93.074219 246.316406 96.085938 C 242.804688 94.714844 238.878906 94.339844 235.695313 92.027344 C 232.515625 89.714844 230.945313 86.097656 228.558594 83.183594 Z M 211.246094 495.242188 C 110.78125 435.695313 22.257813 332.03125 22.257813 161.921875 C 22.257813 136.089844 24.480469 110.894531 28.667969 86.628906 C 71.667969 42.902344 137.570313 14.835938 211.246094 14.835938 C 284.921875 14.835938 350.824219 42.902344 393.824219 86.628906 C 398.011719 110.894531 400.234375 136.089844 400.234375 161.921875 C 400.234375 332.03125 311.710938 435.695313 211.246094 495.242188 Z M 65.628906 179.519531 L 356.863281 179.519531 C 357.164063 165.53125 357.339844 152.425781 356.121094 140.289063 C 354.207031 121.289063 348.785156 114.085938 339.976563 107.339844 C 304.859375 80.460938 260.261719 64.996094 211.246094 64.996094 C 162.230469 64.996094 117.632813 80.460938 82.515625 107.339844 C 73.707031 114.085938 68.289063 121.289063 66.375 140.289063 C 65.152344 152.425781 65.328125 165.53125 65.628906 179.519531 Z M 355.929688 219.914063 L 338.515625 200.328125 L 356.492188 200.328125 C 356.476563 201.886719 356.472656 203.453125 356.472656 205.03125 C 356.472656 209.972656 356.289063 214.933594 355.929688 219.914063 Z M 161.550781 404.6875 C 156.03125 399.710938 150.691406 394.503906 145.546875 389.09375 L 161.550781 371.097656 Z M 130.703125 372.28125 C 124.773438 365.046875 119.179688 357.53125 113.949219 349.796875 L 161.550781 296.261719 L 161.550781 337.589844 Z M 101.675781 330.089844 C 96.773438 321.503906 92.3125 312.703125 88.335938 303.769531 L 161.550781 221.425781 L 161.550781 262.753906 Z M 79.203125 280.53125 C 75.628906 270.074219 72.738281 259.503906 70.582031 248.90625 L 113.769531 200.328125 L 150.515625 200.328125 Z M 66.5625 219.914063 C 66.203125 214.933594 66.019531 209.972656 66.019531 205.03125 C 66.019531 203.453125 66.015625 201.886719 66 200.328125 L 83.976563 200.328125 Z M 343.289063 280.53125 L 271.976563 200.328125 L 308.722656 200.328125 L 351.910156 248.90625 C 349.753906 259.503906 346.859375 270.074219 343.289063 280.53125 Z M 320.8125 330.089844 L 260.941406 262.753906 L 260.941406 221.425781 L 334.15625 303.769531 C 330.179688 312.703125 325.71875 321.503906 320.8125 330.089844 Z M 291.789063 372.28125 L 260.941406 337.589844 L 260.941406 296.261719 L 308.542969 349.796875 C 303.308594 357.53125 297.71875 365.046875 291.789063 372.28125 Z M 260.941406 404.6875 L 260.941406 371.097656 L 276.945313 389.09375 C 271.796875 394.503906 266.460938 399.710938 260.941406 404.6875 Z M 260.941406 404.6875 "/>
</g>
</g>
</svg>
